<?xml version="1.0" standalone="no"?>
<!DOCTYPE svg PUBLIC "-//W3C//DTD SVG 20010904//EN"
 "http://www.w3.org/TR/2001/REC-SVG-20010904/DTD/svg10.dtd">
<svg version="1.0" xmlns="http://www.w3.org/2000/svg"
 width="818.000000pt" height="818.000000pt" viewBox="0 0 818.000000 818.000000"
 preserveAspectRatio="xMidYMid meet">
<metadata>
Created by potrace 1.14, written by Peter Selinger 2001-2017
</metadata>
<g transform="translate(0.000000,818.000000) scale(0.100000,-0.100000)"
fill="#000000" stroke="none">
<path d="M0 4090 l0 -4090 4090 0 4090 0 0 4090 0 4090 -4090 0 -4090 0 0
-4090z m3525 2539 c306 -36 657 -190 850 -373 47 -45 53 -55 50 -86 -1 -19 -3
-37 -4 -39 -2 -6 -53 30 -106 74 -297 248 -737 381 -1145 345 -494 -42 -916
-285 -1168 -673 -28 -43 -54 -87 -57 -97 -5 -17 -16 -20 -61 -20 -30 0 -54 4
-54 8 0 13 107 190 142 235 247 320 579 526 979 607 185 38 359 43 574 19z
m-1446 -1336 c124 -64 243 -125 264 -136 20 -10 37 -22 37 -26 -1 -14 -27 -39
-59 -55 -33 -17 -35 -17 -115 12 -325 120 -628 83 -927 -115 -37 -24 -72 -50
-79 -58 -9 -11 10 -35 105 -127 l117 -114 -41 -44 c-23 -25 -62 -75 -86 -111
-85 -126 -121 -231 -133 -388 -6 -70 -12 -96 -25 -106 -9 -6 -14 -15 -10 -18
3 -4 2 -7 -4 -7 -5 0 -25 -13 -43 -30 -57 -51 -66 -44 -80 69 -25 195 29 406
150 581 l31 45 -142 136 -142 136 359 181 c197 99 406 205 464 236 58 30 111
55 119 55 8 1 116 -52 240 -116z m1698 -238 c77 -39 83 -50 46 -87 l-31 -31
-56 28 c-46 22 -64 26 -100 21 -81 -13 -126 -68 -126 -156 0 -63 21 -101 70
-129 53 -29 117 -28 164 4 l37 25 35 -26 c19 -15 34 -30 34 -34 0 -19 -65 -61
-117 -76 -148 -43 -300 38 -333 178 -22 88 5 181 67 240 75 72 214 91 310 43z
m225 -80 c35 -58 66 -105 69 -105 4 0 35 47 69 105 l62 105 49 0 c29 0 49 -4
49 -11 0 -6 -40 -78 -90 -161 l-90 -149 0 -85 0 -84 -55 0 -55 0 0 86 0 86
-90 150 c-49 82 -90 153 -90 159 0 5 25 9 54 9 l55 0 63 -105z m663 80 c76
-38 97 -132 41 -186 l-23 -22 38 -37 c33 -31 39 -43 39 -79 0 -57 -22 -95 -67
-117 -32 -16 -66 -20 -205 -22 l-168 -4 0 247 0 247 153 -4 c125 -3 159 -7
192 -23z m513 -22 l-3 -48 -127 -3 -128 -3 0 -49 0 -50 115 0 115 0 0 -45 0
-45 -115 0 -115 0 0 -55 0 -55 135 0 135 0 0 -45 0 -45 -190 0 -190 0 0 238
c0 131 3 242 7 245 3 4 87 7 185 7 l179 0 -3 -47z m387 17 c67 -33 95 -77 95
-147 0 -63 -17 -102 -61 -136 l-32 -25 44 -63 c25 -35 48 -70 52 -76 6 -10 -6
-13 -52 -13 l-60 0 -42 63 c-52 76 -54 78 -104 75 l-40 -3 -5 -65 -5 -65 -57
-3 -58 -3 0 239 c0 131 3 242 8 246 4 5 66 6 137 4 114 -3 136 -7 180 -28z
m-4758 -286 l123 -131 -34 -104 c-58 -179 -70 -255 -70 -439 1 -115 5 -184 16
-228 9 -34 15 -68 14 -76 -3 -20 -26 -46 -41 -46 -7 0 -15 -7 -19 -15 -22 -59
-85 63 -150 290 -72 254 -94 476 -81 810 l7 190 56 -60 c30 -33 111 -119 179
-191z m1252 177 c34 -12 67 -24 73 -27 9 -6 -28 -44 -44 -44 -5 0 -6 -4 -3
-10 3 -5 1 -10 -5 -10 -6 0 -22 -12 -36 -27 -24 -26 -26 -26 -147 -24 -109 1
-166 -4 -262 -24 -26 -6 -38 0 -93 50 -34 31 -60 60 -57 65 7 12 112 49 185
65 94 21 304 14 389 -14z m-106 -327 c40 -20 95 -71 112 -105 23 -43 5 -41
-29 4 -72 94 -214 122 -312 62 -70 -44 -107 -108 -112 -196 -4 -56 -1 -69 11
-69 23 0 41 29 44 69 1 20 5 46 8 58 7 30 52 81 86 98 37 20 120 19 161 -1 40
-19 88 -79 87 -108 0 -20 -1 -20 -12 -2 -31 49 -61 76 -103 92 -38 14 -51 15
-87 5 -68 -21 -117 -82 -117 -148 0 -22 3 -24 23 -19 41 12 165 19 193 10 23
-6 10 -9 -61 -15 -207 -15 -343 -142 -361 -337 -4 -39 -11 -69 -15 -66 -13 8
-11 100 3 148 13 44 59 129 88 161 13 15 19 43 23 112 4 76 9 100 31 137 33
57 88 103 146 121 54 18 146 12 193 -11z m1762 -210 c33 -8 64 -19 68 -23 4
-4 1 -26 -8 -48 l-16 -40 -57 20 c-67 22 -125 18 -155 -11 -34 -35 -15 -59 66
-83 169 -48 197 -70 197 -151 0 -60 -30 -105 -87 -130 -63 -28 -207 -22 -270
10 l-42 22 16 40 c9 22 19 40 23 40 4 0 27 -9 51 -20 56 -25 155 -27 181 -3
44 40 14 71 -96 97 -116 28 -154 57 -163 123 -6 48 16 106 51 128 69 46 144
55 241 29z m935 -20 c63 -34 68 -50 31 -88 l-31 -30 -32 24 c-46 34 -131 39
-176 11 -47 -30 -72 -77 -72 -136 0 -65 28 -110 83 -135 66 -30 126 -23 173
21 20 19 20 19 54 -16 29 -30 32 -36 19 -51 -30 -36 -110 -64 -185 -64 -59 0
-81 5 -125 28 -194 101 -174 380 33 454 72 25 161 18 228 -18z m-430 -19 l0
-45 -125 0 -125 0 0 -55 0 -55 110 0 110 0 0 -40 0 -40 -110 0 -110 0 0 -60 0
-60 131 0 130 0 -3 -42 -3 -43 -185 0 -185 0 -3 230 c-1 126 0 235 2 242 4 10
49 13 186 13 l180 0 0 -45z m642 -119 c3 -149 5 -167 24 -193 41 -55 127 -55
168 0 19 26 21 44 24 193 l4 164 54 0 54 0 0 -153 c0 -183 -13 -240 -64 -285
-48 -41 -95 -55 -181 -50 -64 3 -79 7 -112 34 -21 16 -48 50 -60 74 -21 41
-23 58 -23 212 l0 168 54 0 55 0 3 -164z m733 136 c59 -35 79 -67 83 -138 5
-72 -14 -117 -59 -142 -16 -10 -29 -20 -29 -23 0 -3 22 -38 49 -76 28 -39 47
-73 44 -77 -4 -3 -27 -6 -53 -6 -51 0 -63 9 -119 93 -31 45 -34 47 -81 47
l-49 0 -3 -67 -3 -68 -55 0 -55 0 -3 243 -2 244 147 -4 c133 -3 152 -5 188
-26z m253 -214 l-3 -243 -52 -3 -53 -3 0 245 0 246 55 0 55 0 -2 -242z m582
137 c34 -58 64 -105 66 -105 1 0 31 47 66 105 l63 105 52 0 c29 0 53 -2 53 -5
0 -3 -40 -73 -90 -155 l-89 -150 -3 -88 -3 -87 -55 0 -55 0 -3 90 -3 91 -62
104 -63 105 -82 3 -82 3 0 -201 0 -200 -55 0 -55 0 0 200 0 200 -75 0 -75 0 0
45 0 45 244 0 244 0 62 -105z m-2787 -556 c12 -6 30 -19 40 -27 16 -15 16 -16
-4 -38 l-21 -22 -34 20 c-71 42 -149 -5 -149 -89 0 -38 5 -49 34 -75 29 -26
40 -29 73 -25 22 3 47 12 57 21 16 15 19 14 42 -10 20 -21 21 -27 9 -35 -74
-49 -153 -54 -218 -12 -56 36 -75 80 -70 154 3 48 10 65 34 90 16 17 43 37 59
45 37 16 119 18 148 3z m165 -126 l3 -133 79 0 80 0 0 -30 0 -30 -120 0 -120
0 0 158 c0 87 3 162 7 166 4 4 21 6 38 4 l30 -3 3 -132z m250 17 c2 -103 4
-117 23 -132 30 -25 66 -22 94 7 24 23 25 31 25 135 l0 110 36 0 36 0 -4 -130
-3 -130 -32 -32 c-27 -27 -41 -32 -91 -36 -70 -5 -113 13 -142 61 -17 27 -20
51 -20 150 l0 118 38 -3 37 -3 3 -115z m509 94 c33 -25 42 -74 20 -108 -13
-20 -12 -24 9 -49 45 -52 24 -118 -44 -137 -20 -5 -81 -10 -134 -10 l-98 0 0
158 c0 87 3 162 8 166 4 5 53 6 109 4 84 -3 107 -7 130 -24z m680 15 c15 -6
36 -18 46 -26 16 -16 16 -17 -4 -39 -21 -22 -21 -22 -53 -3 -37 23 -67 24
-105 5 -90 -47 -52 -196 51 -196 13 0 37 9 54 19 32 19 32 19 53 -3 20 -22 20
-23 4 -38 -52 -45 -142 -52 -208 -15 -45 25 -85 92 -85 142 0 50 40 117 85
142 44 25 115 30 162 12z m282 0 c29 -10 32 -15 26 -38 -9 -35 -10 -35 -43
-22 -41 17 -102 10 -116 -12 -15 -24 7 -40 78 -56 102 -23 135 -88 77 -153
-25 -29 -35 -32 -95 -36 -50 -3 -77 0 -107 13 -21 10 -39 19 -39 21 0 2 5 14
11 28 11 24 12 24 49 10 21 -9 57 -14 81 -12 37 2 45 7 47 25 4 25 -12 35 -84
53 -64 16 -94 44 -94 89 0 20 6 45 13 54 32 43 126 60 196 36z m321 -19 l0
-29 -82 -3 -83 -3 -3 -32 -3 -32 73 -3 c71 -3 73 -4 76 -30 3 -27 3 -27 -70
-30 l-73 -3 -3 -37 -3 -38 90 0 91 0 0 -30 0 -30 -125 0 -125 0 0 165 0 165
120 0 120 0 0 -30z m-972 -167 c-3 -27 -6 -28 -65 -31 l-63 -3 0 31 0 30 66 0
65 0 -3 -27z m-1438 -370 c0 -59 10 -76 41 -71 22 3 24 8 27 61 3 49 6 58 20
55 14 -3 17 -14 16 -62 -1 -61 -14 -83 -49 -86 -67 -7 -85 13 -85 91 0 46 3
59 15 59 11 0 15 -12 15 -47z m202 6 l33 -41 5 38 c3 27 11 40 23 42 15 3 17
-6 17 -72 0 -66 -2 -76 -17 -76 -10 1 -31 18 -48 39 l-30 38 -5 -36 c-3 -24
-11 -37 -22 -39 -16 -3 -18 6 -18 72 0 91 12 97 62 35z m148 -34 c0 -60 -3
-75 -15 -75 -12 0 -15 15 -15 75 0 60 3 75 15 75 12 0 15 -15 15 -75z m73 25
c11 -27 24 -50 27 -50 3 0 14 23 25 50 13 34 25 50 37 50 17 0 17 -2 2 -37 -8
-21 -22 -55 -31 -75 -24 -59 -47 -51 -83 28 -35 77 -36 84 -14 84 9 0 24 -20
37 -50z m237 35 c0 -11 -11 -15 -40 -15 -29 0 -40 -4 -40 -15 0 -10 11 -15 35
-15 24 0 35 -5 35 -15 0 -10 -11 -15 -35 -15 -24 0 -35 -5 -35 -15 0 -11 11
-15 40 -15 29 0 40 -4 40 -15 0 -12 -13 -15 -60 -15 l-60 0 0 75 0 75 60 0
c47 0 60 -3 60 -15z m138 -1 c25 -18 29 -56 7 -74 -14 -11 -14 -15 0 -36 14
-22 14 -24 -4 -24 -11 0 -25 9 -31 20 -6 11 -17 20 -24 20 -8 0 -16 -9 -19
-20 -3 -11 -12 -20 -21 -20 -13 0 -16 13 -16 75 l0 75 43 0 c23 0 53 -7 65
-16z m150 -1 c2 -9 -8 -13 -32 -13 -38 0 -58 -17 -29 -26 47 -14 68 -31 68
-54 0 -32 -40 -52 -80 -42 -43 12 -47 36 -4 29 40 -8 70 5 48 19 -8 5 -27 14
-44 19 -37 12 -47 52 -18 72 22 17 85 13 91 -4z m72 -58 c0 -60 -3 -75 -15
-75 -12 0 -15 15 -15 75 0 60 3 75 15 75 12 0 15 -15 15 -75z m204 43 l19 -31
27 33 c40 49 54 33 20 -22 -17 -27 -30 -59 -30 -73 0 -16 -6 -25 -15 -25 -9 0
-15 9 -15 22 0 12 -11 40 -25 64 -22 38 -28 42 -52 35 -26 -7 -28 -12 -31 -64
-2 -42 -7 -57 -17 -57 -12 0 -15 14 -15 60 0 57 -1 60 -25 60 -16 0 -25 6 -25
15 0 12 16 15 83 15 82 0 83 0 101 -32z m300 11 c28 -22 35 -64 16 -99 -14
-27 -64 -41 -100 -28 -35 12 -50 35 -50 77 0 36 40 71 80 71 15 0 39 -9 54
-21z m169 6 c1 -5 -15 -11 -35 -13 -30 -3 -38 -7 -38 -23 0 -15 7 -19 36 -19
45 0 42 -24 -4 -28 -26 -3 -32 -8 -32 -28 0 -17 -5 -24 -20 -24 -18 0 -20 7
-20 75 l0 76 55 -3 c30 -2 56 -7 58 -13z m204 -63 c29 -65 31 -72 14 -72 -10
0 -21 7 -25 15 -8 21 -72 20 -84 -1 -5 -9 -16 -14 -24 -13 -13 3 -9 17 18 77
42 93 56 92 101 -6z m150 61 c3 -7 -10 -13 -34 -15 -47 -4 -49 -18 -4 -33 43
-14 60 -38 45 -62 -20 -32 -102 -35 -112 -5 -3 10 7 12 34 10 51 -4 53 20 4
36 -41 13 -54 51 -23 73 21 16 85 13 90 -4z m73 -58 c0 -68 -2 -75 -20 -75
-18 0 -20 7 -20 68 0 71 4 82 27 82 10 0 13 -19 13 -75z m149 5 c17 -39 31
-72 31 -75 0 -12 -31 -3 -36 10 -4 10 -20 15 -44 15 -24 0 -40 -5 -44 -15 -3
-8 -13 -15 -22 -15 -9 0 -14 6 -11 13 39 96 62 137 77 137 12 0 27 -22 49 -70z
m232 49 c5 -8 9 -26 9 -41 0 -30 -24 -48 -64 -48 -19 0 -26 -5 -26 -20 0 -13
-7 -20 -20 -20 -18 0 -20 7 -20 68 0 38 3 72 8 76 12 13 103 0 113 -15z m145
-51 c30 -63 32 -73 18 -77 -10 -1 -21 4 -26 13 -12 21 -76 22 -84 1 -7 -16
-34 -21 -34 -6 0 26 61 141 75 141 10 0 29 -28 51 -72z m165 61 c29 -15 12
-31 -25 -23 -37 6 -66 -14 -66 -45 0 -28 25 -43 66 -39 45 4 58 -18 17 -28
-67 -18 -113 8 -113 63 0 66 63 104 121 72z m79 -64 c0 -68 -2 -75 -20 -75
-18 0 -20 7 -20 68 0 71 4 82 27 82 10 0 13 -19 13 -75z m150 60 c0 -11 -11
-15 -40 -15 -33 0 -40 -3 -40 -20 0 -16 7 -20 35 -20 24 0 35 -5 35 -15 0 -10
-11 -15 -35 -15 -31 0 -35 -3 -35 -25 0 -16 -6 -25 -15 -25 -12 0 -15 15 -15
75 l0 75 55 0 c42 0 55 -3 55 -15z m60 -60 c0 -68 -2 -75 -20 -75 -18 0 -20 7
-20 68 0 71 4 82 27 82 10 0 13 -19 13 -75z m151 64 c31 -16 12 -30 -31 -23
-36 6 -40 4 -52 -21 -18 -39 -1 -60 50 -60 47 0 58 -7 38 -24 -21 -18 -71 -16
-100 3 -21 13 -26 25 -26 56 0 65 62 101 121 69z m-3292 -349 l39 -40 458 0
c253 0 476 -3 497 -6 32 -6 37 -10 37 -34 0 -16 -7 -30 -16 -34 -9 -3 -232 -6
-497 -6 l-482 0 -30 -36 c-50 -59 -129 -63 -186 -8 -52 50 -46 129 12 179 24
19 42 25 80 25 44 0 53 -4 88 -40z"/>
<path d="M4430 4935 l0 -55 76 0 c94 0 114 10 114 56 0 43 -23 54 -121 54
l-69 0 0 -55z"/>
<path d="M4432 4739 l3 -64 87 1 c96 1 128 16 128 59 0 42 -32 57 -130 63
l-91 5 3 -64z"/>
<path d="M5360 4895 l0 -85 43 0 c60 0 114 17 132 43 22 32 19 74 -10 102 -21
22 -33 25 -95 25 l-70 0 0 -85z"/>
<path d="M5380 4235 l0 -85 60 0 c93 0 130 26 130 88 -1 55 -45 82 -136 82
l-54 0 0 -85z"/>
<path d="M4400 3660 c0 -40 0 -40 38 -40 55 0 81 10 88 33 9 29 -20 47 -78 47
l-48 0 0 -40z"/>
<path d="M4400 3530 l0 -41 61 3 c46 2 65 8 73 21 21 33 -4 52 -73 55 l-61 3
0 -41z"/>
<path d="M4170 3185 c0 -20 5 -25 24 -25 27 0 40 22 23 39 -21 21 -47 13 -47
-14z"/>
<path d="M4876 3194 c-19 -18 -20 -28 -6 -55 21 -39 90 -16 90 30 0 16 -30 41
-50 41 -10 0 -26 -7 -34 -16z"/>
<path d="M5276 3185 c-10 -26 -7 -35 9 -35 17 0 19 18 6 38 -7 11 -10 10 -15
-3z"/>
<path d="M5646 3174 c-9 -23 -8 -24 14 -24 11 0 20 2 20 4 0 12 -13 36 -20 36
-4 0 -11 -7 -14 -16z"/>
<path d="M5860 3185 c0 -23 4 -26 28 -23 19 2 27 9 27 23 0 14 -8 21 -27 23
-24 3 -28 0 -28 -23z"/>
<path d="M6025 3181 c-8 -26 -3 -34 19 -29 12 2 13 7 2 27 l-14 24 -7 -22z"/>
<path d="M3259 2852 c-15 -13 -22 -30 -22 -52 0 -63 78 -93 121 -47 28 30 28
68 -1 95 -28 27 -67 28 -98 4z"/>
</g>
</svg>
